<?xml version="1.0" encoding="UTF-8"?>
<svg width="35px" height="41px" viewBox="0 0 35 41" version="1.1" xmlns="http://www.w3.org/2000/svg" xmlns:xlink="http://www.w3.org/1999/xlink">
    <!-- Generator: Sketch 52.2 (67145) - http://www.bohemiancoding.com/sketch -->
    <title>分组 2</title>
    <desc>Created with Sketch.</desc>
    <g id="Page-3" stroke="none" stroke-width="1" fill="none" fill-rule="evenodd">
        <g id="网页logo替换" transform="translate(-540.000000, -271.000000)" fill="#499BF8">
            <g id="分组-2" transform="translate(540.000000, 271.000000)">
                <path d="M17.6410316,15.9032834 L12.70188,15.9032834 C10.8094447,15.9032834 9.14778505,17.1237028 8.63467922,18.8904719 L6.99229705,24.5456603 C6.95614048,24.6701576 7.03088396,24.7995119 7.15924127,24.8345812 C7.18054599,24.840402 7.2025747,24.8433538 7.22470852,24.8433538 L13.9998525,24.8433538 C14.133205,24.8433538 14.2413086,24.9482065 14.2413086,25.0775488 C14.2413086,25.0994891 14.2381299,25.1213205 14.2318657,25.1424028 L12.7294348,30.3771937 C12.6996377,30.4774768 12.6050219,30.5465347 12.4974215,30.5465347 L2.72881768,30.5465347 C1.39529239,30.5465347 0.314256544,29.498008 0.314256544,28.2045847 C0.314256544,27.9904587 0.344532909,27.7773442 0.404239394,27.5711979 L3.61296951,16.4925399 C4.72499041,12.6531085 8.33466585,10 12.446367,10 L24.6817654,10 C25.2151755,10 25.6475899,10.4194107 25.6475899,10.93678 C25.6475899,11.0213001 25.6357968,11.1054314 25.6125319,11.1868836 L19.2540601,33.4482746 C17.9996143,37.8401643 13.7016734,40.7455461 9.01930753,40.3669047 C10.2425686,39.7536162 11.4019399,37.9871056 12.4974215,35.0673729 C12.89132,33.783228 14.7220188,27.5441953 17.989518,16.3502747 C18.0440107,16.1635982 17.9321608,15.9694215 17.739696,15.9165693 C17.7075957,15.9077543 17.6743936,15.9032834 17.6410316,15.9032834 Z" id="Combined-Shape"></path>
                <path d="M30.680278,10 L33.9008888,10 C34.0310015,10 34.1364788,10.1074064 34.1364788,10.239899 C34.1364788,10.2620032 34.1334787,10.2840013 34.1275637,10.305269 L28.7864456,28.7153992 C28.3556844,30.2642321 26.9671557,31.3333333 25.3863217,31.3333333 L22.2671476,31.3333333 C22.1370348,31.3333333 22.0315576,31.2259269 22.0315576,31.0934343 C22.0315576,31.0717534 22.0344439,31.0501725 22.0401376,31.0292811 L27.2751287,12.6361862 C27.6997187,11.0782873 29.0925373,10 30.680278,10 Z" id="Rectangle-4" fill-rule="nonzero"></path>
            </g>
        </g>
    </g>
</svg>