<?xml version="1.0" encoding="UTF-8"?>
<svg width="10px" height="12px" viewBox="0 0 10 12" version="1.1" xmlns="http://www.w3.org/2000/svg" xmlns:xlink="http://www.w3.org/1999/xlink">
    <!-- Generator: Sketch 52.2 (67145) - http://www.bohemiancoding.com/sketch -->
    <title>更多</title>
    <desc>Created with Sketch.</desc>
    <g id="Page-4" stroke="none" stroke-width="1" fill="none" fill-rule="evenodd">
        <g id="菜单栏收起" transform="translate(-44.000000, -871.000000)" fill="#7C8F9F">
            <g id="更多" transform="translate(49.000000, 877.000000) scale(-1, 1) translate(-49.000000, -877.000000) translate(44.000000, 871.000000)">
                <path d="M9.76025238,11.0271629 L4.77237269,5.99938013 L9.76025238,0.971597407 C9.94033503,0.790074096 9.94033503,0.49457154 9.76025238,0.315158581 C9.58016973,0.13363527 9.28701243,0.13363527 9.10902339,0.315158581 L3.83847038,5.62787601 C3.73795919,5.72919129 3.69398554,5.86638998 3.70654941,5.9993657 C3.6939855,6.13234203 3.73795919,6.26953907 3.83847038,6.37085538 L9.10902339,11.6835728 C9.28910604,11.8650961 9.58226334,11.8650961 9.76025238,11.6835728 C9.94033503,11.5041603 9.94033503,11.2086569 9.76025238,11.027134 L9.76025238,11.0271629 Z" id="路径" opacity="0.600000024"></path>
                <path d="M6.15860757,11.0693823 L1.17072788,6.04159956 L6.15860757,1.01381683 C6.33869022,0.83229352 6.33869022,0.536790964 6.15860757,0.357378005 C5.97852492,0.175854694 5.68536762,0.175854694 5.50737857,0.357378005 L0.236825563,5.67009544 C0.136314379,5.77141071 0.0923407226,5.9086094 0.104904595,6.04158512 C0.0923406816,6.17456146 0.136314379,6.3117585 0.236825563,6.4130748 L5.50737857,11.7257922 C5.68746122,11.9073155 5.98061852,11.9073155 6.15860757,11.7257922 C6.33869022,11.5463797 6.33869022,11.2508763 6.15860757,11.0693534 L6.15860757,11.0693823 Z" id="路径"></path>
            </g>
        </g>
    </g>
</svg>